# xmcd CD database file
#
# Track frame offsets:
#	150
#	20321
#	30117
#	41528
#	56894
#	70350
#	85187
#	99772
#	116228
#	129782
#	144933
#	157230
#	173164
#	186921
#	203831
#	219257
#	234400
#	253993
#	267827
#	279853
#
# Disc length: 3870 seconds
#
# Revision: 0
# Processed by: cddbd v1.5PL3 Copyright (c) Steve Scherf et al.
# Submitted via: Feurio! 1.67 - http://www.feurio.com
#
DISCID=110f1c14
DTITLE=Various Artist - Ja na brachu country
DYEAR=2004
DGENRE=Country
TTITLE0=P.Spaleny a D.Barta - Dite stesteny
TTITLE1=M.Tucny a Z.Rytir - Delame co muzem
TTITLE2=J.Nedved a Z.Tichotova - Safran
TTITLE3=P.Bobek a K.Gott - Vsem divkam
TTITLE4=I.Hlas a H.Vycital - Milacku vrat se
TTITLE5=F.Nedved a H.Marsalkova - Siry proud
TTITLE6=W.Danek a R.Krestan - Jackson
TTITLE7=P.Bobek a M.Rottrova - S tim blaznem si nic nezacinej
TTITLE8=W.Ryvola a R.Horky - Hubenej Claim
TTITLE9=M.Tucny a R.Krestan - Pane muj
TTITLE10=Y.Prenosilova a V.Vyskocil - Zustavam
TTITLE11=P.Bobek a P.Jisova - Motylek rano
TTITLE12=K.Markytan a W.Danek - Jak leta k certu jdou
TTITLE13=R.Horky a L.Kerndl - Podoby
TTITLE14=M.Hoffmann a T.Linka - Posledni sklenka
TTITLE15=V.Martinova a P.Jisova - Co dat sve lasce
TTITLE16=K.Zich a P.Bobek - Bowery Street
TTITLE17=K.Cernoch a L.Machalkova - Par slov
TTITLE18=T.Linka a P.Kocman - Nesmim ji usnout v naruci
TTITLE19=R.Krestan a H.Vycital - Zvednete kotvy
EXTD=Comments: Nr. 038 036 - 2 /CD\r\n
EXTT0=
EXTT1=
EXTT2=
EXTT3=
EXTT4=
EXTT5=
EXTT6=
EXTT7=
EXTT8=
EXTT9=
EXTT10=
EXTT11=
EXTT12=
EXTT13=
EXTT14=
EXTT15=
EXTT16=
EXTT17=
EXTT18=
EXTT19=
PLAYORDER=
